<?xml version="1.0" encoding="utf-8"?>
<!-- Generator: Adobe Illustrator 16.0.0, SVG Export Plug-In . SVG Version: 6.00 Build 0)  -->
<!DOCTYPE svg PUBLIC "-//W3C//DTD SVG 1.1//EN" "http://www.w3.org/Graphics/SVG/1.1/DTD/svg11.dtd">
<svg version="1.1" id="Layer_1" xmlns="http://www.w3.org/2000/svg" xmlns:xlink="http://www.w3.org/1999/xlink" x="0px" y="0px"
	 width="198.43px" height="198.43px" viewBox="0 0 198.43 198.43" enable-background="new 0 0 198.43 198.43" xml:space="preserve">
<path fill="#281D17" d="M89.639,168.608h20.896c0,0-1.379,13.083-10.322,13.083S89.639,168.608,89.639,168.608z"/>
<linearGradient id="SVGID_1_" gradientUnits="userSpaceOnUse" x1="86.7649" y1="160.6477" x2="86.7649" y2="143.0217">
	<stop  offset="0.1882" style="stop-color:#0C8175"/>
	<stop  offset="0.8387" style="stop-color:#74AC5D"/>
</linearGradient>
<ellipse fill="url(#SVGID_1_)" cx="86.765" cy="151.835" rx="4.175" ry="8.813"/>
<linearGradient id="SVGID_2_" gradientUnits="userSpaceOnUse" x1="113.4084" y1="160.6477" x2="113.4084" y2="143.0217">
	<stop  offset="0.1882" style="stop-color:#0C8175"/>
	<stop  offset="0.8387" style="stop-color:#74AC5D"/>
</linearGradient>
<ellipse fill="url(#SVGID_2_)" cx="113.408" cy="151.835" rx="4.175" ry="8.813"/>
<path fill="#FFFFFF" d="M99.959,135.771c-21.628,0.021-37.446-3.361-37.446-3.361v51.943c0,0,0.01,0.713,1.479,1.526
	c4.354,2.417,16.178,7.049,35.969,7.08c20.486,0.033,32.229-4.739,36.313-7.078c1.19-0.682,1.387-1.528,1.387-1.528v-1.861v-50.082
	C137.658,132.407,121.588,135.751,99.959,135.771z M86.775,160.646c-2.306,0-4.175-3.943-4.175-8.813
	c0-4.867,1.869-8.813,4.175-8.813c2.308,0,4.177,3.945,4.177,8.813S89.083,160.646,86.775,160.646z M100.224,181.691
	c-8.943,0-10.573-13.083-10.573-13.083h20.896C110.546,168.608,109.167,181.691,100.224,181.691z M113.42,160.646
	c-2.308,0-4.175-3.943-4.175-8.813c0-4.867,1.867-8.813,4.175-8.813c2.306,0,4.175,3.945,4.175,8.813
	S115.726,160.646,113.42,160.646z"/>
<g>
	<linearGradient id="SVGID_3_" gradientUnits="userSpaceOnUse" x1="192.425" y1="106.6233" x2="192.425" y2="106.6018">
		<stop  offset="0.0753" style="stop-color:#029F90"/>
		<stop  offset="0.9194" style="stop-color:#CDDC43"/>
	</linearGradient>
	<path fill="url(#SVGID_3_)" d="M192.438,106.608v-0.006c-0.004,0.002-0.012,0.01-0.025,0.021
		C192.415,106.623,192.438,106.608,192.438,106.608z"/>
	<linearGradient id="SVGID_4_" gradientUnits="userSpaceOnUse" x1="100.1174" y1="127.925" x2="100.1174" y2="8.0759">
		<stop  offset="0.0753" style="stop-color:#029F90"/>
		<stop  offset="0.9194" style="stop-color:#CDDC43"/>
	</linearGradient>
	<path fill="url(#SVGID_4_)" d="M183.115,58.311c0.117,0.349,0.172,0.531,0.172,0.531s-19.355,0.886-31.062-13.902
		c-11.701-14.785-9.869-27.496-9.869-27.496s0.107,0.042,0.308,0.126c-19.82-9.66-37.779-9.469-42.548-9.49
		c-4.114-0.021-18.054-0.15-34.532,6.029c0.026,0.208,2.227,16.657-13.1,30.83C37.081,59.188,18.496,55.535,18.457,55.527
		c-12.479,24.914-10.66,51.081-10.66,51.081s0.02,0.014,0.021,0.016c0.063-0.068,8.793-9.231,27.281-5.401
		c18.559,3.846,22.918,22.46,22.918,22.46c12.538,2.563,26.262,4.243,42.187,4.243c15.571,0,29.751-1.732,42.073-4.206
		c0.021-0.083,4.365-18.687,22.883-22.521c18.446-3.824,27.179,5.288,27.278,5.396C192.476,106.064,194.006,82.086,183.115,58.311z
		 M100.032,110.233c-22.93,0-41.432-17.938-41.432-40.063s18.588-40.062,41.518-40.062c22.927,0,41.515,17.937,41.515,40.062
		S122.959,110.233,100.032,110.233z"/>
	<linearGradient id="SVGID_5_" gradientUnits="userSpaceOnUse" x1="192.4397" y1="106.6038" x2="192.4397" y2="106.594">
		<stop  offset="0.0753" style="stop-color:#029F90"/>
		<stop  offset="0.9194" style="stop-color:#CDDC43"/>
	</linearGradient>
	<polygon fill="url(#SVGID_5_)" points="192.438,106.604 192.443,106.598 192.439,106.594 	"/>
	<linearGradient id="SVGID_6_" gradientUnits="userSpaceOnUse" x1="100.1184" y1="108.134" x2="100.1184" y2="44.9392">
		<stop  offset="0.0753" style="stop-color:#029F90"/>
		<stop  offset="0.9194" style="stop-color:#CDDC43"/>
	</linearGradient>
	<path fill="url(#SVGID_6_)" d="M113.034,57.813c-6.708,7.626-13.002,18.474-13.002,18.474s-4.553-9.175-13.161-18.474
		c-8.61-9.3-18.308-12.874-18.308-12.874s2.529,15.715,11.118,32.769c8.589,17.052,20.351,30.427,20.351,30.427
		s12.313-14.315,20.5-30.427c8.188-16.112,11.142-32.769,11.142-32.769S119.742,50.185,113.034,57.813z"/>
</g>
<path fill="#FFFFFF" d="M142.276,123.723c0,0,11.426-1.967,27.112-7.315c19.293-6.581,23.055-9.81,23.055-9.81
	s-8.728-9.247-27.282-5.401C146.604,105.04,142.276,123.723,142.276,123.723z"/>
<path fill="#FFFFFF" d="M65.583,14.1c0,0-11.445,2.975-26.975,15.812C24.949,41.205,18.455,55.528,18.455,55.528
	s18.608,3.678,34.03-10.587C67.908,30.676,65.583,14.1,65.583,14.1z"/>
<path fill="#FFFFFF" d="M142.357,17.443c0,0,10.371,4.019,22.948,15.826c14.588,13.696,17.98,25.572,17.98,25.572
	s-19.355,0.886-31.062-13.901C140.525,30.153,142.357,17.443,142.357,17.443z"/>
<path fill="#FFFFFF" d="M58.019,123.682c0,0-11.459-1.896-27.146-7.249c-19.293-6.581-23.057-9.808-23.057-9.808
	s8.729-9.247,27.284-5.403C53.658,105.066,58.019,123.682,58.019,123.682z"/>
<path fill="#FFFFFF" d="M100.032,30.109c22.928,0,41.601,17.938,41.601,40.063s-18.673,40.062-41.601,40.062
	c-22.93,0-41.431-17.937-41.431-40.062S77.104,30.109,100.032,30.109z"/>
<linearGradient id="SVGID_7_" gradientUnits="userSpaceOnUse" x1="100.1174" y1="108.1331" x2="100.1174" y2="44.9392">
	<stop  offset="0.0591" style="stop-color:#0A7874"/>
	<stop  offset="0.8763" style="stop-color:#B0DEDF"/>
</linearGradient>
<path fill="url(#SVGID_7_)" d="M100.032,76.286c0,0,6.294-10.849,13.002-18.475c6.708-7.628,18.639-12.873,18.639-12.873
	s-2.954,16.654-11.142,32.768c-8.188,16.11-20.5,30.427-20.5,30.427S88.27,94.758,79.681,77.706
	c-8.588-17.053-11.118-32.768-11.118-32.768s9.696,3.573,18.308,12.873C95.48,67.111,100.032,76.286,100.032,76.286z"/>
</svg>
